<?xml version="1.0" encoding="utf-8" standalone="no"?>
<!DOCTYPE svg PUBLIC "-//W3C//DTD SVG 1.1//EN"
  "http://www.w3.org/Graphics/SVG/1.1/DTD/svg11.dtd">
<!-- Created with matplotlib (http://matplotlib.org/) -->
<svg height="252.018125pt" version="1.1" viewBox="0 0 366.0625 252.018125" width="366.0625pt" xmlns="http://www.w3.org/2000/svg" xmlns:xlink="http://www.w3.org/1999/xlink">
 <defs>
  <style type="text/css">
*{stroke-linecap:butt;stroke-linejoin:round;}
  </style>
 </defs>
 <g id="figure_1">
  <g id="patch_1">
   <path d="M 0 252.018125 
L 366.0625 252.018125 
L 366.0625 0 
L 0 0 
z
" style="fill:none;"/>
  </g>
  <g id="axes_1">
   <g id="patch_2">
    <path d="M 20.5625 228.14 
L 355.3625 228.14 
L 355.3625 10.7 
L 20.5625 10.7 
z
" style="fill:#ffffff;"/>
   </g>
   <g id="matplotlib.axis_1">
    <g id="xtick_1">
     <g id="line2d_1">
      <defs>
       <path d="M 0 0 
L 0 3.5 
" id="m38ac8fbc9b" style="stroke:#000000;stroke-width:0.8;"/>
      </defs>
      <g>
       <use style="stroke:#000000;stroke-width:0.8;" x="59.600445" xlink:href="#m38ac8fbc9b" y="228.14"/>
      </g>
     </g>
     <g id="text_1">
      <!-- 2015-02 -->
      <defs>
       <path d="M 19.1875 8.296875 
L 53.609375 8.296875 
L 53.609375 0 
L 7.328125 0 
L 7.328125 8.296875 
Q 12.9375 14.109375 22.625 23.890625 
Q 32.328125 33.6875 34.8125 36.53125 
Q 39.546875 41.84375 41.421875 45.53125 
Q 43.3125 49.21875 43.3125 52.78125 
Q 43.3125 58.59375 39.234375 62.25 
Q 35.15625 65.921875 28.609375 65.921875 
Q 23.96875 65.921875 18.8125 64.3125 
Q 13.671875 62.703125 7.8125 59.421875 
L 7.8125 69.390625 
Q 13.765625 71.78125 18.9375 73 
Q 24.125 74.21875 28.421875 74.21875 
Q 39.75 74.21875 46.484375 68.546875 
Q 53.21875 62.890625 53.21875 53.421875 
Q 53.21875 48.921875 51.53125 44.890625 
Q 49.859375 40.875 45.40625 35.40625 
Q 44.1875 33.984375 37.640625 27.21875 
Q 31.109375 20.453125 19.1875 8.296875 
z
" id="DejaVuSans-32"/>
       <path d="M 31.78125 66.40625 
Q 24.171875 66.40625 20.328125 58.90625 
Q 16.5 51.421875 16.5 36.375 
Q 16.5 21.390625 20.328125 13.890625 
Q 24.171875 6.390625 31.78125 6.390625 
Q 39.453125 6.390625 43.28125 13.890625 
Q 47.125 21.390625 47.125 36.375 
Q 47.125 51.421875 43.28125 58.90625 
Q 39.453125 66.40625 31.78125 66.40625 
z
M 31.78125 74.21875 
Q 44.046875 74.21875 50.515625 64.515625 
Q 56.984375 54.828125 56.984375 36.375 
Q 56.984375 17.96875 50.515625 8.265625 
Q 44.046875 -1.421875 31.78125 -1.421875 
Q 19.53125 -1.421875 13.0625 8.265625 
Q 6.59375 17.96875 6.59375 36.375 
Q 6.59375 54.828125 13.0625 64.515625 
Q 19.53125 74.21875 31.78125 74.21875 
z
" id="DejaVuSans-30"/>
       <path d="M 12.40625 8.296875 
L 28.515625 8.296875 
L 28.515625 63.921875 
L 10.984375 60.40625 
L 10.984375 69.390625 
L 28.421875 72.90625 
L 38.28125 72.90625 
L 38.28125 8.296875 
L 54.390625 8.296875 
L 54.390625 0 
L 12.40625 0 
z
" id="DejaVuSans-31"/>
       <path d="M 10.796875 72.90625 
L 49.515625 72.90625 
L 49.515625 64.59375 
L 19.828125 64.59375 
L 19.828125 46.734375 
Q 21.96875 47.46875 24.109375 47.828125 
Q 26.265625 48.1875 28.421875 48.1875 
Q 40.625 48.1875 47.75 41.5 
Q 54.890625 34.8125 54.890625 23.390625 
Q 54.890625 11.625 47.5625 5.09375 
Q 40.234375 -1.421875 26.90625 -1.421875 
Q 22.3125 -1.421875 17.546875 -0.640625 
Q 12.796875 0.140625 7.71875 1.703125 
L 7.71875 11.625 
Q 12.109375 9.234375 16.796875 8.0625 
Q 21.484375 6.890625 26.703125 6.890625 
Q 35.15625 6.890625 40.078125 11.328125 
Q 45.015625 15.765625 45.015625 23.390625 
Q 45.015625 31 40.078125 35.4375 
Q 35.15625 39.890625 26.703125 39.890625 
Q 22.75 39.890625 18.8125 39.015625 
Q 14.890625 38.140625 10.796875 36.28125 
z
" id="DejaVuSans-35"/>
       <path d="M 4.890625 31.390625 
L 31.203125 31.390625 
L 31.203125 23.390625 
L 4.890625 23.390625 
z
" id="DejaVuSans-2d"/>
      </defs>
      <g transform="translate(38.709038 242.738437)scale(0.1 -0.1)">
       <use xlink:href="#DejaVuSans-32"/>
       <use x="63.623047" xlink:href="#DejaVuSans-30"/>
       <use x="127.246094" xlink:href="#DejaVuSans-31"/>
       <use x="190.869141" xlink:href="#DejaVuSans-35"/>
       <use x="254.492188" xlink:href="#DejaVuSans-2d"/>
       <use x="290.576172" xlink:href="#DejaVuSans-30"/>
       <use x="354.199219" xlink:href="#DejaVuSans-32"/>
      </g>
     </g>
    </g>
    <g id="xtick_2">
     <g id="line2d_2">
      <g>
       <use style="stroke:#000000;stroke-width:0.8;" x="111.651038" xlink:href="#m38ac8fbc9b" y="228.14"/>
      </g>
     </g>
     <g id="text_2">
      <!-- 2015-04 -->
      <defs>
       <path d="M 37.796875 64.3125 
L 12.890625 25.390625 
L 37.796875 25.390625 
z
M 35.203125 72.90625 
L 47.609375 72.90625 
L 47.609375 25.390625 
L 58.015625 25.390625 
L 58.015625 17.1875 
L 47.609375 17.1875 
L 47.609375 0 
L 37.796875 0 
L 37.796875 17.1875 
L 4.890625 17.1875 
L 4.890625 26.703125 
z
" id="DejaVuSans-34"/>
      </defs>
      <g transform="translate(90.759631 242.738437)scale(0.1 -0.1)">
       <use xlink:href="#DejaVuSans-32"/>
       <use x="63.623047" xlink:href="#DejaVuSans-30"/>
       <use x="127.246094" xlink:href="#DejaVuSans-31"/>
       <use x="190.869141" xlink:href="#DejaVuSans-35"/>
       <use x="254.492188" xlink:href="#DejaVuSans-2d"/>
       <use x="290.576172" xlink:href="#DejaVuSans-30"/>
       <use x="354.199219" xlink:href="#DejaVuSans-34"/>
      </g>
     </g>
    </g>
    <g id="xtick_3">
     <g id="line2d_3">
      <g>
       <use style="stroke:#000000;stroke-width:0.8;" x="165.466057" xlink:href="#m38ac8fbc9b" y="228.14"/>
      </g>
     </g>
     <g id="text_3">
      <!-- 2015-06 -->
      <defs>
       <path d="M 33.015625 40.375 
Q 26.375 40.375 22.484375 35.828125 
Q 18.609375 31.296875 18.609375 23.390625 
Q 18.609375 15.53125 22.484375 10.953125 
Q 26.375 6.390625 33.015625 6.390625 
Q 39.65625 6.390625 43.53125 10.953125 
Q 47.40625 15.53125 47.40625 23.390625 
Q 47.40625 31.296875 43.53125 35.828125 
Q 39.65625 40.375 33.015625 40.375 
z
M 52.59375 71.296875 
L 52.59375 62.3125 
Q 48.875 64.0625 45.09375 64.984375 
Q 41.3125 65.921875 37.59375 65.921875 
Q 27.828125 65.921875 22.671875 59.328125 
Q 17.53125 52.734375 16.796875 39.40625 
Q 19.671875 43.65625 24.015625 45.921875 
Q 28.375 48.1875 33.59375 48.1875 
Q 44.578125 48.1875 50.953125 41.515625 
Q 57.328125 34.859375 57.328125 23.390625 
Q 57.328125 12.15625 50.6875 5.359375 
Q 44.046875 -1.421875 33.015625 -1.421875 
Q 20.359375 -1.421875 13.671875 8.265625 
Q 6.984375 17.96875 6.984375 36.375 
Q 6.984375 53.65625 15.1875 63.9375 
Q 23.390625 74.21875 37.203125 74.21875 
Q 40.921875 74.21875 44.703125 73.484375 
Q 48.484375 72.75 52.59375 71.296875 
z
" id="DejaVuSans-36"/>
      </defs>
      <g transform="translate(144.574651 242.738437)scale(0.1 -0.1)">
       <use xlink:href="#DejaVuSans-32"/>
       <use x="63.623047" xlink:href="#DejaVuSans-30"/>
       <use x="127.246094" xlink:href="#DejaVuSans-31"/>
       <use x="190.869141" xlink:href="#DejaVuSans-35"/>
       <use x="254.492188" xlink:href="#DejaVuSans-2d"/>
       <use x="290.576172" xlink:href="#DejaVuSans-30"/>
       <use x="354.199219" xlink:href="#DejaVuSans-36"/>
      </g>
     </g>
    </g>
    <g id="xtick_4">
     <g id="line2d_4">
      <g>
       <use style="stroke:#000000;stroke-width:0.8;" x="219.281077" xlink:href="#m38ac8fbc9b" y="228.14"/>
      </g>
     </g>
     <g id="text_4">
      <!-- 2015-08 -->
      <defs>
       <path d="M 31.78125 34.625 
Q 24.75 34.625 20.71875 30.859375 
Q 16.703125 27.09375 16.703125 20.515625 
Q 16.703125 13.921875 20.71875 10.15625 
Q 24.75 6.390625 31.78125 6.390625 
Q 38.8125 6.390625 42.859375 10.171875 
Q 46.921875 13.96875 46.921875 20.515625 
Q 46.921875 27.09375 42.890625 30.859375 
Q 38.875 34.625 31.78125 34.625 
z
M 21.921875 38.8125 
Q 15.578125 40.375 12.03125 44.71875 
Q 8.5 49.078125 8.5 55.328125 
Q 8.5 64.0625 14.71875 69.140625 
Q 20.953125 74.21875 31.78125 74.21875 
Q 42.671875 74.21875 48.875 69.140625 
Q 55.078125 64.0625 55.078125 55.328125 
Q 55.078125 49.078125 51.53125 44.71875 
Q 48 40.375 41.703125 38.8125 
Q 48.828125 37.15625 52.796875 32.3125 
Q 56.78125 27.484375 56.78125 20.515625 
Q 56.78125 9.90625 50.3125 4.234375 
Q 43.84375 -1.421875 31.78125 -1.421875 
Q 19.734375 -1.421875 13.25 4.234375 
Q 6.78125 9.90625 6.78125 20.515625 
Q 6.78125 27.484375 10.78125 32.3125 
Q 14.796875 37.15625 21.921875 38.8125 
z
M 18.3125 54.390625 
Q 18.3125 48.734375 21.84375 45.5625 
Q 25.390625 42.390625 31.78125 42.390625 
Q 38.140625 42.390625 41.71875 45.5625 
Q 45.3125 48.734375 45.3125 54.390625 
Q 45.3125 60.0625 41.71875 63.234375 
Q 38.140625 66.40625 31.78125 66.40625 
Q 25.390625 66.40625 21.84375 63.234375 
Q 18.3125 60.0625 18.3125 54.390625 
z
" id="DejaVuSans-38"/>
      </defs>
      <g transform="translate(198.389671 242.738437)scale(0.1 -0.1)">
       <use xlink:href="#DejaVuSans-32"/>
       <use x="63.623047" xlink:href="#DejaVuSans-30"/>
       <use x="127.246094" xlink:href="#DejaVuSans-31"/>
       <use x="190.869141" xlink:href="#DejaVuSans-35"/>
       <use x="254.492188" xlink:href="#DejaVuSans-2d"/>
       <use x="290.576172" xlink:href="#DejaVuSans-30"/>
       <use x="354.199219" xlink:href="#DejaVuSans-38"/>
      </g>
     </g>
    </g>
    <g id="xtick_5">
     <g id="line2d_5">
      <g>
       <use style="stroke:#000000;stroke-width:0.8;" x="273.096097" xlink:href="#m38ac8fbc9b" y="228.14"/>
      </g>
     </g>
     <g id="text_5">
      <!-- 2015-10 -->
      <g transform="translate(252.204691 242.738437)scale(0.1 -0.1)">
       <use xlink:href="#DejaVuSans-32"/>
       <use x="63.623047" xlink:href="#DejaVuSans-30"/>
       <use x="127.246094" xlink:href="#DejaVuSans-31"/>
       <use x="190.869141" xlink:href="#DejaVuSans-35"/>
       <use x="254.492188" xlink:href="#DejaVuSans-2d"/>
       <use x="290.576172" xlink:href="#DejaVuSans-31"/>
       <use x="354.199219" xlink:href="#DejaVuSans-30"/>
      </g>
     </g>
    </g>
    <g id="xtick_6">
     <g id="line2d_6">
      <g>
       <use style="stroke:#000000;stroke-width:0.8;" x="326.911117" xlink:href="#m38ac8fbc9b" y="228.14"/>
      </g>
     </g>
     <g id="text_6">
      <!-- 2015-12 -->
      <g transform="translate(306.01971 242.738437)scale(0.1 -0.1)">
       <use xlink:href="#DejaVuSans-32"/>
       <use x="63.623047" xlink:href="#DejaVuSans-30"/>
       <use x="127.246094" xlink:href="#DejaVuSans-31"/>
       <use x="190.869141" xlink:href="#DejaVuSans-35"/>
       <use x="254.492188" xlink:href="#DejaVuSans-2d"/>
       <use x="290.576172" xlink:href="#DejaVuSans-31"/>
       <use x="354.199219" xlink:href="#DejaVuSans-32"/>
      </g>
     </g>
    </g>
   </g>
   <g id="matplotlib.axis_2">
    <g id="ytick_1">
     <g id="line2d_7">
      <defs>
       <path d="M 0 0 
L -3.5 0 
" id="m452d2abc2f" style="stroke:#000000;stroke-width:0.8;"/>
      </defs>
      <g>
       <use style="stroke:#000000;stroke-width:0.8;" x="20.5625" xlink:href="#m452d2abc2f" y="215.19167"/>
      </g>
     </g>
     <g id="text_7">
      <!-- 2 -->
      <g transform="translate(7.2 218.990889)scale(0.1 -0.1)">
       <use xlink:href="#DejaVuSans-32"/>
      </g>
     </g>
    </g>
    <g id="ytick_2">
     <g id="line2d_8">
      <g>
       <use style="stroke:#000000;stroke-width:0.8;" x="20.5625" xlink:href="#m452d2abc2f" y="176.883002"/>
      </g>
     </g>
     <g id="text_8">
      <!-- 3 -->
      <defs>
       <path d="M 40.578125 39.3125 
Q 47.65625 37.796875 51.625 33 
Q 55.609375 28.21875 55.609375 21.1875 
Q 55.609375 10.40625 48.1875 4.484375 
Q 40.765625 -1.421875 27.09375 -1.421875 
Q 22.515625 -1.421875 17.65625 -0.515625 
Q 12.796875 0.390625 7.625 2.203125 
L 7.625 11.71875 
Q 11.71875 9.328125 16.59375 8.109375 
Q 21.484375 6.890625 26.8125 6.890625 
Q 36.078125 6.890625 40.9375 10.546875 
Q 45.796875 14.203125 45.796875 21.1875 
Q 45.796875 27.640625 41.28125 31.265625 
Q 36.765625 34.90625 28.71875 34.90625 
L 20.21875 34.90625 
L 20.21875 43.015625 
L 29.109375 43.015625 
Q 36.375 43.015625 40.234375 45.921875 
Q 44.09375 48.828125 44.09375 54.296875 
Q 44.09375 59.90625 40.109375 62.90625 
Q 36.140625 65.921875 28.71875 65.921875 
Q 24.65625 65.921875 20.015625 65.03125 
Q 15.375 64.15625 9.8125 62.3125 
L 9.8125 71.09375 
Q 15.4375 72.65625 20.34375 73.4375 
Q 25.25 74.21875 29.59375 74.21875 
Q 40.828125 74.21875 47.359375 69.109375 
Q 53.90625 64.015625 53.90625 55.328125 
Q 53.90625 49.265625 50.4375 45.09375 
Q 46.96875 40.921875 40.578125 39.3125 
z
" id="DejaVuSans-33"/>
      </defs>
      <g transform="translate(7.2 180.682221)scale(0.1 -0.1)">
       <use xlink:href="#DejaVuSans-33"/>
      </g>
     </g>
    </g>
    <g id="ytick_3">
     <g id="line2d_9">
      <g>
       <use style="stroke:#000000;stroke-width:0.8;" x="20.5625" xlink:href="#m452d2abc2f" y="138.574334"/>
      </g>
     </g>
     <g id="text_9">
      <!-- 4 -->
      <g transform="translate(7.2 142.373553)scale(0.1 -0.1)">
       <use xlink:href="#DejaVuSans-34"/>
      </g>
     </g>
    </g>
    <g id="ytick_4">
     <g id="line2d_10">
      <g>
       <use style="stroke:#000000;stroke-width:0.8;" x="20.5625" xlink:href="#m452d2abc2f" y="100.265666"/>
      </g>
     </g>
     <g id="text_10">
      <!-- 5 -->
      <g transform="translate(7.2 104.064885)scale(0.1 -0.1)">
       <use xlink:href="#DejaVuSans-35"/>
      </g>
     </g>
    </g>
    <g id="ytick_5">
     <g id="line2d_11">
      <g>
       <use style="stroke:#000000;stroke-width:0.8;" x="20.5625" xlink:href="#m452d2abc2f" y="61.956998"/>
      </g>
     </g>
     <g id="text_11">
      <!-- 6 -->
      <g transform="translate(7.2 65.756217)scale(0.1 -0.1)">
       <use xlink:href="#DejaVuSans-36"/>
      </g>
     </g>
    </g>
    <g id="ytick_6">
     <g id="line2d_12">
      <g>
       <use style="stroke:#000000;stroke-width:0.8;" x="20.5625" xlink:href="#m452d2abc2f" y="23.64833"/>
      </g>
     </g>
     <g id="text_12">
      <!-- 7 -->
      <defs>
       <path d="M 8.203125 72.90625 
L 55.078125 72.90625 
L 55.078125 68.703125 
L 28.609375 0 
L 18.3125 0 
L 43.21875 64.59375 
L 8.203125 64.59375 
z
" id="DejaVuSans-37"/>
      </defs>
      <g transform="translate(7.2 27.447549)scale(0.1 -0.1)">
       <use xlink:href="#DejaVuSans-37"/>
      </g>
     </g>
    </g>
   </g>
   <g id="line2d_13">
    <path clip-path="url(#p1083d150a9)" d="M 340.144318 173.435222 
L 339.262105 173.818309 
L 338.379891 175.350655 
L 335.733251 178.798436 
L 333.968824 171.902875 
L 333.086611 175.733742 
L 332.204397 171.902875 
L 329.557757 172.669049 
L 328.675543 174.201395 
L 327.79333 176.499915 
L 326.911117 174.201395 
L 326.028903 176.883002 
L 323.382263 174.967569 
L 322.500049 161.942622 
L 321.617836 158.111755 
L 320.735623 159.644101 
L 319.853409 162.325708 
L 317.206769 159.644101 
L 316.324555 156.962495 
L 315.442342 162.325708 
L 314.560128 154.280888 
L 313.677915 151.216195 
L 311.031275 163.858055 
L 310.149061 165.390402 
L 309.266848 161.942622 
L 308.384634 163.091882 
L 307.502421 166.922748 
L 304.855781 168.455095 
L 303.973567 169.987442 
L 303.091354 165.773488 
L 302.20914 172.669049 
L 301.326927 173.818309 
L 297.798073 155.430148 
L 296.033646 179.181522 
L 295.151433 189.141776 
L 292.504792 192.589556 
L 291.622579 196.420423 
L 290.740366 199.485116 
L 289.858152 189.524863 
L 288.975939 193.738816 
L 286.329298 191.057209 
L 285.447085 193.738816 
L 284.564872 197.95277 
L 283.682658 195.271163 
L 282.800445 195.271163 
L 280.153804 204.082156 
L 279.271591 206.380677 
L 272.213883 210.211543 
L 271.33167 210.977717 
L 270.449457 207.913023 
L 267.802816 210.211543 
L 266.920603 206.380677 
L 266.038389 208.29611 
L 265.156176 204.84833 
L 264.273962 206.763763 
L 261.627322 209.44537 
L 260.745109 212.126977 
L 259.862895 210.977717 
L 258.980682 218.256364 
L 258.098468 210.211543 
L 255.451828 201.40055 
L 254.569615 200.634376 
L 253.687401 200.634376 
L 252.805188 204.082156 
L 251.922974 209.062283 
L 247.511907 212.126977 
L 245.74748 203.315983 
L 243.10084 198.718943 
L 242.218626 205.99759 
L 241.336413 210.211543 
L 240.4542 205.231416 
L 239.571986 195.271163 
L 236.925346 184.544736 
L 236.043132 176.499915 
L 235.160919 174.201395 
L 234.278706 178.032262 
L 233.396492 165.007315 
L 230.749852 163.474968 
L 229.867638 166.539662 
L 228.985425 170.370529 
L 228.103211 165.390402 
L 227.220998 171.902875 
L 224.574358 183.012389 
L 223.692144 187.226342 
L 222.809931 185.693996 
L 221.927717 184.544736 
L 221.045504 194.504989 
L 217.51665 184.544736 
L 216.634437 179.947696 
L 215.752223 188.758689 
L 214.87001 177.649175 
L 211.341156 161.176448 
L 210.458943 167.305835 
L 209.576729 172.285962 
L 208.694516 172.285962 
L 206.047875 174.201395 
L 205.165662 181.480042 
L 204.283449 181.096956 
L 203.401235 168.838182 
L 202.519022 179.947696 
L 199.872381 190.291036 
L 198.107955 207.913023 
L 197.225741 202.54981 
L 196.343528 192.589556 
L 193.696887 181.863129 
L 191.93246 155.813235 
L 191.050247 140.872854 
L 190.168034 146.236068 
L 187.521393 130.146427 
L 186.63918 112.141353 
L 185.756966 97.584059 
L 184.874753 100.648753 
L 181.345899 102.947273 
L 180.463686 81.877505 
L 179.581472 72.300338 
L 178.699259 88.389979 
L 177.817045 72.300338 
L 175.170405 59.658478 
L 174.288192 53.912178 
L 173.405978 59.658478 
L 172.523765 58.126131 
L 171.641551 45.484271 
L 168.994911 60.041564 
L 168.112698 67.320211 
L 167.230484 55.827611 
L 166.348271 63.872431 
L 165.466057 80.728245 
L 162.819417 88.389979 
L 161.937204 79.962072 
L 161.05499 56.210698 
L 160.172777 50.847484 
L 159.290563 61.190825 
L 156.643923 66.554038 
L 155.761709 61.956998 
L 154.879496 79.195899 
L 153.997283 85.325285 
L 153.115069 89.156152 
L 150.468429 81.877505 
L 149.586215 66.937125 
L 148.704002 87.240719 
L 147.821789 86.474545 
L 146.939575 83.792939 
L 144.292935 95.668626 
L 143.410721 109.842833 
L 142.528508 99.499493 
L 140.764081 74.215772 
L 137.235227 73.066512 
L 136.353014 68.852558 
L 135.4708 71.151078 
L 134.588587 56.976871 
L 131.941947 51.996744 
L 131.059733 39.73797 
L 130.17752 62.723171 
L 129.295306 65.404778 
L 128.413093 73.449598 
L 125.766453 58.892304 
L 124.884239 58.126131 
L 124.002026 50.847484 
L 123.119812 53.529091 
L 122.237599 41.270317 
L 119.590958 34.374757 
L 118.708745 28.24537 
L 117.826532 20.583636 
L 116.944318 45.484271 
L 113.415464 67.703298 
L 112.533251 63.489345 
L 111.651038 66.170951 
L 110.768824 66.170951 
L 109.886611 68.852558 
L 107.23997 51.613658 
L 106.357757 53.912178 
L 105.475543 27.479197 
L 104.59333 38.971797 
L 103.711117 61.190825 
L 101.064476 81.877505 
L 100.182263 96.817886 
L 99.300049 102.947273 
L 97.535623 135.892727 
L 94.888982 135.892727 
L 94.006769 137.041987 
L 93.124555 138.574334 
L 92.242342 133.594207 
L 91.360128 127.081734 
L 88.713488 135.892727 
L 87.831275 150.066934 
L 86.949061 136.658901 
L 86.066848 139.340507 
L 85.184634 153.131628 
L 82.537994 165.773488 
L 81.655781 165.390402 
L 80.773567 166.539662 
L 73.71586 166.922748 
L 72.833646 165.007315 
L 70.187006 165.007315 
L 69.304792 174.584482 
L 68.422579 176.116829 
L 67.540366 176.883002 
L 66.658152 180.330782 
L 64.011512 177.649175 
L 63.129298 165.390402 
L 62.247085 161.942622 
L 61.364872 168.455095 
L 60.482658 161.559535 
L 57.836018 166.539662 
L 56.953804 162.325708 
L 56.071591 157.345581 
L 55.189377 150.833108 
L 54.307164 148.534588 
L 51.660524 147.002241 
L 50.77831 140.106681 
L 49.896097 141.639027 
L 49.013883 141.639027 
L 48.13167 155.430148 
L 45.48503 145.469894 
L 44.602816 145.469894 
L 43.720603 142.405201 
L 42.838389 155.813235 
L 41.956176 165.773488 
L 39.309536 176.883002 
L 38.427322 181.863129 
L 37.545109 178.415349 
L 36.662895 184.927822 
L 35.780682 189.524863 
L 35.780682 189.524863 
" style="fill:none;stroke:#1f77b4;stroke-linecap:square;stroke-width:1.5;"/>
   </g>
   <g id="patch_3">
    <path d="M 20.5625 228.14 
L 20.5625 10.7 
" style="fill:none;stroke:#000000;stroke-linecap:square;stroke-linejoin:miter;stroke-width:0.8;"/>
   </g>
   <g id="patch_4">
    <path d="M 355.3625 228.14 
L 355.3625 10.7 
" style="fill:none;stroke:#000000;stroke-linecap:square;stroke-linejoin:miter;stroke-width:0.8;"/>
   </g>
   <g id="patch_5">
    <path d="M 20.5625 228.14 
L 355.3625 228.14 
" style="fill:none;stroke:#000000;stroke-linecap:square;stroke-linejoin:miter;stroke-width:0.8;"/>
   </g>
   <g id="patch_6">
    <path d="M 20.5625 10.7 
L 355.3625 10.7 
" style="fill:none;stroke:#000000;stroke-linecap:square;stroke-linejoin:miter;stroke-width:0.8;"/>
   </g>
  </g>
 </g>
 <defs>
  <clipPath id="p1083d150a9">
   <rect height="217.44" width="334.8" x="20.5625" y="10.7"/>
  </clipPath>
 </defs>
</svg>
